<svg width="300" height="300" viewBox="0 0 300 300" fill="none" xmlns="http://www.w3.org/2000/svg">
<rect width="300" height="300" fill="#2F2F2F"/>
<g clip-path="url(#clip0_228_46)">
<path d="M200 150C200 122.386 177.614 100 150 100C122.386 100 100 122.386 100 150C100 177.614 122.386 200 150 200C177.614 200 200 177.614 200 150Z" fill="#2F2F2F"/>
<path d="M153.252 141.662L158.819 125.868C159.586 123.69 156.906 121.995 155.376 123.691L134.553 146.792C133.548 147.907 133.97 149.719 135.356 150.239L146.554 154.448C147.622 154.85 148.173 156.07 147.785 157.174L142.16 173.132C141.378 175.35 144.155 177.035 145.651 175.252L165.496 151.598C166.441 150.471 166 148.717 164.644 148.207L154.483 144.388C153.414 143.986 152.863 142.766 153.252 141.662Z" fill="#FFDCB4"/>
</g>
<defs>
<clipPath id="clip0_228_46">
<rect width="100" height="100" fill="white" transform="translate(100 100)"/>
</clipPath>
</defs>
</svg>
